# xmcd
#
# Track frame offsets: 
#        150
#        20512
#        39545
#        64420
#        79822
#        92902
#        110830
#        130767
#        151967
#        164557
#
# Disc length: 2444 seconds
#
# Revision: 2
# Processed by: cddbd v1.5.2PL0 Copyright (c) Steve Scherf et al.
# Submitted via: ExactAudioCopy v0.99pb5
#
DISCID=86098a0a
DTITLE=Beat Daddys - No, We Ain't From Clarksdale
DYEAR=1992
DGENRE=Blues
TTITLE0=Tear the House Down
TTITLE1=Livin' This Love
TTITLE2=Evil Memory
TTITLE3=This Is Gonna' Change Your Mind
TTITLE4=She Knocks Me Out
TTITLE5=Bad News
TTITLE6=Different Name
TTITLE7=I'll Always Love You
TTITLE8=Tick of the Clock
TTITLE9=The Delta Song
EXTD=
EXTT0=
EXTT1=
EXTT2=
EXTT3=
EXTT4=
EXTT5=
EXTT6=
EXTT7=
EXTT8=
EXTT9=
PLAYORDER=
